<svg width="50" height="13" viewBox="0 0 50 13" fill="none" xmlns="http://www.w3.org/2000/svg">
<path d="M1.14 10V0.808H1.152L6.06 7.768L5.316 7.6L10.212 0.808H10.236V10H8.496V4.732L8.604 5.632L5.616 9.88H5.592L2.52 5.632L2.82 4.804V10H1.14ZM9.60291 10L13.5869 0.819999H13.6829L17.6669 10H15.6509L13.1069 3.544L14.3669 2.68L11.3189 10H9.60291ZM12.3269 6.808H14.9789L15.5909 8.272H11.7869L12.3269 6.808ZM18.7984 4.312L18.7504 4.756L19.0144 4.42L21.8944 1.168H24.1504L20.5024 5.128L24.1624 10H21.9544L19.2304 6.232L18.7984 6.664V10H17.0344V1.168H18.7984V4.312ZM23.5636 1.168H29.5876V2.848H25.3036V4.732H29.0956V6.412H25.3036V8.32H29.7556V10H23.5636V1.168ZM39.8405 8.296H42.5765V10H37.5605L39.8405 8.296ZM33.0605 5.596C33.0605 4.988 33.1765 4.412 33.4085 3.868C33.6405 3.324 33.9605 2.844 34.3685 2.428C34.7845 2.004 35.2645 1.672 35.8085 1.432C36.3525 1.192 36.9365 1.072 37.5605 1.072C38.1765 1.072 38.7565 1.192 39.3005 1.432C39.8445 1.672 40.3245 2.004 40.7405 2.428C41.1645 2.844 41.4925 3.324 41.7245 3.868C41.9645 4.412 42.0845 4.988 42.0845 5.596C42.0845 6.22 41.9645 6.804 41.7245 7.348C41.4925 7.892 41.1645 8.372 40.7405 8.788C40.3245 9.196 39.8445 9.516 39.3005 9.748C38.7565 9.98 38.1765 10.096 37.5605 10.096C36.9365 10.096 36.3525 9.98 35.8085 9.748C35.2645 9.516 34.7845 9.196 34.3685 8.788C33.9605 8.372 33.6405 7.892 33.4085 7.348C33.1765 6.804 33.0605 6.22 33.0605 5.596ZM34.8605 5.596C34.8605 5.98 34.9285 6.344 35.0645 6.688C35.2085 7.024 35.4045 7.324 35.6525 7.588C35.9085 7.844 36.2005 8.044 36.5285 8.188C36.8645 8.332 37.2285 8.404 37.6205 8.404C37.9965 8.404 38.3445 8.332 38.6645 8.188C38.9925 8.044 39.2765 7.844 39.5165 7.588C39.7565 7.332 39.9445 7.036 40.0805 6.7C40.2165 6.356 40.2845 5.988 40.2845 5.596C40.2845 5.212 40.2125 4.852 40.0685 4.516C39.9325 4.172 39.7405 3.872 39.4925 3.616C39.2525 3.36 38.9685 3.16 38.6405 3.016C38.3125 2.872 37.9565 2.8 37.5725 2.8C37.1885 2.8 36.8325 2.872 36.5045 3.016C36.1765 3.16 35.8885 3.36 35.6405 3.616C35.3925 3.872 35.2005 4.172 35.0645 4.516C34.9285 4.852 34.8605 5.212 34.8605 5.596ZM45.0674 1.168C45.6194 1.168 46.1114 1.24 46.5434 1.384C46.9754 1.52 47.3354 1.72 47.6234 1.984C47.9194 2.24 48.1434 2.552 48.2954 2.92C48.4474 3.28 48.5234 3.688 48.5234 4.144C48.5234 4.504 48.4674 4.864 48.3554 5.224C48.2514 5.584 48.0754 5.912 47.8274 6.208C47.5874 6.504 47.2674 6.744 46.8674 6.928C46.4674 7.104 45.9714 7.192 45.3794 7.192H44.1314V10H42.3914V1.168H45.0674ZM45.3674 5.512C45.6314 5.512 45.8514 5.468 46.0274 5.38C46.2034 5.292 46.3394 5.18 46.4354 5.044C46.5394 4.908 46.6114 4.768 46.6514 4.624C46.6994 4.472 46.7234 4.332 46.7234 4.204C46.7234 4.108 46.7074 3.988 46.6754 3.844C46.6514 3.692 46.5954 3.54 46.5074 3.388C46.4194 3.236 46.2834 3.108 46.0994 3.004C45.9234 2.9 45.6834 2.848 45.3794 2.848H44.1314V5.512H45.3674ZM46.9994 6.592L49.1834 10H47.1554L44.9234 6.64L46.9994 6.592Z" fill="black"/>
<path d="M31.4238 3.51367C31.0078 3.51367 30.7998 3.39941 30.7998 3.1709V2.14258C30.7998 2.02539 30.8496 1.94043 30.9492 1.8877C31.0488 1.8291 31.207 1.7998 31.4238 1.7998H31.6875C31.9043 1.7998 32.0625 1.8291 32.1621 1.8877C32.2617 1.94043 32.3115 2.02539 32.3115 2.14258V3.1709C32.3115 3.39941 32.1035 3.51367 31.6875 3.51367H31.4238ZM31.4238 10.0264C31.207 10.0264 31.0488 10 30.9492 9.94727C30.8496 9.88867 30.7998 9.80078 30.7998 9.68359V8.65527C30.7998 8.42676 31.0078 8.3125 31.4238 8.3125H31.6875C32.1035 8.3125 32.3115 8.42676 32.3115 8.65527V9.68359C32.3115 9.80078 32.2617 9.88867 32.1621 9.94727C32.0625 10 31.9043 10.0264 31.6875 10.0264H31.4238Z" fill="black"/>
</svg>
